<svg width="45" height="45" viewBox="0 0 45 45" fill="none" xmlns="http://www.w3.org/2000/svg">
<path d="M34.875 45C32.8725 45 30.9149 44.4062 29.2498 43.2936C27.5848 42.1811 26.2871 40.5998 25.5207 38.7497C24.7544 36.8996 24.5539 34.8638 24.9445 32.8997C25.3352 30.9356 26.2995 29.1316 27.7155 27.7156C29.1316 26.2996 30.9357 25.3352 32.8997 24.9445C34.8638 24.5539 36.8996 24.7544 38.7497 25.5207C40.5998 26.2871 42.1811 27.5848 43.2936 29.2498C44.4062 30.9149 45 32.8725 45 34.875C44.997 37.5594 43.9293 40.133 42.0312 42.0312C40.133 43.9293 37.5594 44.997 34.875 45ZM34.875 29.25C33.7625 29.25 32.6749 29.5799 31.7499 30.198C30.8249 30.8161 30.1039 31.6946 29.6782 32.7224C29.2524 33.7502 29.141 34.8812 29.3581 35.9724C29.5751 37.0635 30.1109 38.0658 30.8975 38.8525C31.6842 39.6391 32.6865 40.1749 33.7776 40.3919C34.8688 40.609 35.9998 40.4976 37.0276 40.0718C38.0554 39.6461 38.9339 38.9251 39.552 38.0001C40.1701 37.075 40.5 35.9875 40.5 34.875C40.5 33.3832 39.9074 31.9524 38.8525 30.8975C37.7976 29.8426 36.3668 29.25 34.875 29.25Z" fill="#00DF5E"/>
<path d="M38.25 34.8728C38.25 33.0088 36.739 31.4978 34.875 31.4978C33.011 31.4978 31.5 33.0088 31.5 34.8728C31.5 36.7367 33.011 38.2478 34.875 38.2478C36.739 38.2478 38.25 36.7367 38.25 34.8728Z" fill="#00DF5E"/>
<path d="M10.125 20.25C8.12247 20.25 6.1649 19.6562 4.49985 18.5436C2.83481 17.4311 1.53706 15.8498 0.770726 13.9997C0.00438856 12.1496 -0.196122 10.1138 0.194553 8.14971C0.585228 6.18565 1.54955 4.38158 2.96555 2.96557C4.38156 1.54957 6.18566 0.585221 8.14972 0.194546C10.1138 -0.196129 12.1496 0.00440767 13.9997 0.770745C15.8498 1.53708 17.4311 2.8348 18.5436 4.49985C19.6562 6.16489 20.25 8.12248 20.25 10.125C20.247 12.8094 19.1793 15.383 17.2812 17.2812C15.383 19.1793 12.8094 20.247 10.125 20.25ZM10.125 4.50002C9.01249 4.50002 7.92495 4.82992 6.99992 5.448C6.07489 6.06608 5.35393 6.94458 4.92818 7.97242C4.50244 9.00025 4.39104 10.1312 4.60809 11.2224C4.82513 12.3135 5.36086 13.3158 6.14753 14.1025C6.9342 14.8891 7.93648 15.4249 9.02762 15.6419C10.1188 15.859 11.2498 15.7476 12.2776 15.3218C13.3054 14.8961 14.1839 14.1751 14.802 13.2501C15.4201 12.325 15.75 11.2375 15.75 10.125C15.75 8.63317 15.1574 7.20241 14.1025 6.14752C13.0476 5.09263 11.6168 4.50002 10.125 4.50002Z" fill="#00DF5E"/>
<path d="M18 7.87277H42.75C43.3467 7.87277 43.919 8.10982 44.341 8.53177C44.7629 8.95373 45 9.52603 45 10.1228C45 10.7195 44.7629 11.2918 44.341 11.7138C43.919 12.1357 43.3467 12.3728 42.75 12.3728H18V7.87277Z" fill="#00DF5E"/>
<path d="M27 37.1228H2.25001C1.65327 37.1228 1.08098 36.8857 0.659019 36.4637C0.237062 36.0418 8.59144e-06 35.4695 8.59144e-06 34.8728C8.59144e-06 34.276 0.237062 33.7037 0.659019 33.2818C1.08098 32.8598 1.65327 32.6228 2.25001 32.6228H27V37.1228Z" fill="#00DF5E"/>
</svg>
