<svg width="45" height="45" viewBox="0 0 45 45" fill="none" xmlns="http://www.w3.org/2000/svg">
<path d="M22.5 45C22.1853 45.0005 21.874 44.9346 21.5865 44.8065L1.33649 35.8066C0.938644 35.6298 0.600632 35.3415 0.363407 34.9764C0.126182 34.6114 -5.52347e-05 34.1854 1.813e-08 33.7501V11.2502C-5.52347e-05 10.8149 0.126182 10.3889 0.363407 10.0239C0.600632 9.65884 0.938644 9.37046 1.33649 9.19371L21.5865 0.19377C21.8741 0.0660022 22.1853 0 22.5 0C22.8147 0 23.1259 0.0660022 23.4135 0.19377L43.6635 9.19371C44.0613 9.37046 44.3994 9.65884 44.6366 10.0239C44.8738 10.3889 45.0001 10.8149 45 11.2502V33.7501C45.0001 34.1854 44.8738 34.6114 44.6366 34.9764C44.3994 35.3415 44.0613 35.6298 43.6635 35.8066L23.4135 44.8065C23.1261 44.935 22.8148 45.001 22.5 45ZM4.5 32.2899L22.5 40.2885L40.5 32.2899V12.7149L22.5 4.71626L4.5 12.7149V32.2899Z" fill="#00DF5E"/>
<path d="M22.5 22.5001C22.1853 22.5006 21.874 22.4347 21.5865 22.3066L1.33649 13.3067L3.16348 9.19371L22.5 17.7887L41.8365 9.19371L43.6635 13.3067L23.4135 22.3066C23.1261 22.4352 22.8148 22.5011 22.5 22.5001Z" fill="#00DF5E"/>
<path d="M24.75 20.2592H20.25V42.759H24.75V20.2592Z" fill="#00DF5E"/>
<path d="M14.4144 4.70068L12.5865 8.81571L32.841 17.8127L34.6689 13.6977L14.4144 4.70068Z" fill="#00DF5E"/>
<path d="M7.41824 31.7701L14.1682 34.7693C14.3392 34.8439 14.5261 34.8749 14.712 34.8593C14.8979 34.8438 15.077 34.7822 15.2332 34.6803C15.3894 34.5783 15.5179 34.439 15.6069 34.2751C15.6959 34.1112 15.7428 33.9276 15.7432 33.7411V31.2661C15.7427 31.0477 15.6786 30.8342 15.5587 30.6516C15.4388 30.469 15.2684 30.3252 15.0682 30.2379L8.31823 27.2386C8.14725 27.164 7.96039 27.1331 7.77448 27.1486C7.58856 27.1642 7.40946 27.2257 7.25324 27.3277C7.09703 27.4297 6.96863 27.5689 6.8796 27.7329C6.79058 27.8968 6.74371 28.0803 6.74324 28.2669V30.7419C6.74379 30.9603 6.80791 31.1738 6.92777 31.3564C7.04764 31.539 7.21806 31.6827 7.41824 31.7701Z" fill="#00DF5E"/>
</svg>
