<svg width="45" height="45" viewBox="0 0 45 45" fill="none" xmlns="http://www.w3.org/2000/svg">
<path d="M38.6032 14.4528C37.3281 11.901 35.4646 9.68881 33.1666 7.99864C30.8685 6.30847 28.2016 5.18869 25.3857 4.73163C22.5698 4.27457 19.6856 4.4933 16.9709 5.36981C14.2562 6.24632 11.7886 7.75551 9.77176 9.77293L6.59025 6.59155C9.11135 4.07 12.1957 2.18371 15.589 1.08822C18.9823 -0.00728361 22.5873 -0.280615 26.107 0.290706C29.6267 0.862027 32.9602 2.26167 35.8327 4.37424C38.7052 6.48682 41.0345 9.25183 42.6285 12.4413L38.6032 14.4528Z" fill="#00DF5E"/>
<path d="M22.5 44.9999C18.3187 45.013 14.2173 43.8553 10.66 41.658C7.10267 39.4607 4.23151 36.3115 2.3715 32.5668L6.39676 30.5419C7.67192 33.0937 9.53536 35.3059 11.8334 36.996C14.1315 38.6862 16.7984 39.806 19.6143 40.263C22.4302 40.7201 25.3144 40.5014 28.0291 39.6249C30.7438 38.7483 33.2114 37.2392 35.2282 35.2218L38.4097 38.4031C36.3258 40.5 33.8466 42.1628 31.1157 43.2951C28.3848 44.4274 25.4564 45.0069 22.5 44.9999Z" fill="#00DF5E"/>
<path d="M4.5 40.5001H0V29.2505C0 28.6538 0.237051 28.0815 0.659008 27.6595C1.08096 27.2376 1.65326 27.0006 2.25 27.0006H13.5V31.5004H4.5V40.5001Z" fill="#00DF5E"/>
<path d="M42.75 18.0009H31.5V13.501H40.5V4.50138H45V15.751C45 16.3477 44.7629 16.92 44.341 17.3419C43.919 17.7638 43.3467 18.0009 42.75 18.0009Z" fill="#00DF5E"/>
<path d="M41.481 34.5445L37.683 32.1259C38.4048 31.0011 38.998 29.7989 39.4515 28.5417L43.6883 30.0559C43.1221 31.6297 42.3818 33.1353 41.481 34.5445Z" fill="#00DF5E"/>
<path d="M5.54851 16.4597L1.31173 14.9455C1.87789 13.3717 2.61825 11.8662 3.51899 10.4569L7.317 12.8756C6.59517 14.0003 6.00196 15.2026 5.54851 16.4597Z" fill="#00DF5E"/>
</svg>
